<svg width="154" height="154" viewBox="0 0 154 154" fill="none" xmlns="http://www.w3.org/2000/svg">
<path d="M63.6908 4.52511C44.7575 9.59177 29.8241 26.7918 26.2241 47.7251C23.2908 65.0584 27.8241 79.3251 45.9575 109.725C56.4908 127.325 61.9575 134.658 64.6241 134.658C65.6908 134.658 68.3575 133.725 70.4908 132.658L74.4908 130.658L68.0908 122.658C60.8908 113.725 46.8908 89.7251 41.4241 77.0584C38.3575 69.8584 37.8241 66.7918 37.9575 55.9918C37.9575 44.9251 38.3575 42.5251 41.4241 36.5251C48.7575 22.3918 61.6908 14.6584 77.5575 14.6584C93.8241 14.6584 107.157 23.1918 113.824 37.7251C116.357 42.9251 118.091 44.7918 122.624 46.7918C125.691 48.2584 128.491 49.0584 128.757 48.7918C129.691 47.8584 126.357 37.0584 123.557 31.3251C112.224 9.19177 87.5575 -2.00823 63.6908 4.52511Z" fill="black"/>
<path d="M60.7574 45.4585C51.4241 45.8585 43.2908 46.7918 42.6241 47.4585C41.9574 48.1251 41.1574 51.3251 40.6241 54.5251C39.8241 59.7251 39.9574 60.2585 42.0908 59.4585C51.6908 55.7251 94.2241 54.7918 107.691 57.9918C125.557 62.2585 136.891 72.7918 141.824 89.9918C145.691 103.325 142.224 116.925 132.357 127.992C124.624 136.525 116.224 139.992 103.157 139.992C93.8241 139.992 91.8241 140.392 87.2908 143.458L82.0908 147.058L85.9574 149.192C88.7574 150.792 93.4241 151.325 103.824 151.325C117.024 151.325 118.357 151.058 126.357 146.925C136.757 141.458 144.891 133.192 149.957 123.058C153.424 115.992 153.824 113.992 153.824 101.325C153.824 87.7251 153.691 86.9251 148.757 77.0585C143.557 66.3918 134.491 56.7918 125.157 51.9918C112.757 45.5918 95.4241 43.8585 60.7574 45.4585Z" fill="black"/>
<path d="M14.6241 64.2585C-9.64252 89.1918 -2.30919 131.592 28.8908 146.925C37.1575 151.058 38.6241 151.325 51.8241 151.325C64.7575 151.325 66.4908 151.058 74.4908 147.192C84.3575 142.392 90.4908 137.058 98.0908 126.658C108.624 112.258 124.624 82.7918 126.891 73.7251C127.424 71.3251 126.624 70.1251 122.891 67.9918C120.224 66.5251 118.091 65.3251 117.957 65.5918C117.824 65.8585 116.091 70.1251 114.091 75.3251C109.291 87.9918 89.4241 120.658 82.4908 127.592C66.6241 143.458 42.7575 144.792 25.5575 131.058C17.2908 124.392 11.8241 112.658 11.8241 101.325C11.8241 90.9251 13.4241 85.5918 18.6241 77.5918C21.1575 73.8585 22.4908 70.1251 22.4908 66.9251C22.4908 58.3918 20.8908 57.8585 14.6241 64.2585Z" fill="black"/>
<path d="M62.0907 66.7918C60.0907 67.9918 60.4907 68.9251 66.3574 76.2585L73.0241 84.3918L68.7574 89.7251C60.4907 99.7251 60.4907 99.8585 63.0241 102.392C65.2907 104.525 65.6907 104.258 70.6241 98.6585C73.4241 95.3251 75.8241 92.2585 75.8241 91.5918C75.8241 89.1918 78.3574 91.1918 83.0241 97.3251C88.3574 104.258 90.4907 105.325 93.0241 102.125C94.3574 100.658 93.4241 98.7918 88.4907 92.7918C85.1574 88.6585 82.4907 85.0585 82.4907 84.6585C82.4907 84.2585 85.1574 80.5251 88.4907 76.3918C92.8907 70.6585 94.0907 68.3918 92.8907 67.0585C90.4907 64.1251 88.4907 65.0585 82.8907 71.9918L77.5574 78.5251L71.9574 71.9918C65.9574 64.7918 65.6907 64.6585 62.0907 66.7918Z" fill="black"/>
</svg>
